<mxfile host="app.diagrams.net" modified="2024-02-15T14:42:05.137Z" agent="Mozilla/5.0 (Windows NT 10.0; Win64; x64) AppleWebKit/537.36 (KHTML, like Gecko) Chrome/121.0.0.0 Safari/537.36 Edg/121.0.0.0" etag="Sd5_Yp_kgWH-w2wVDSch" version="23.1.4" type="github">
  <diagram id="R2lEEEUBdFMjLlhIrx00" name="Page-1">
    <mxGraphModel dx="2056" dy="659" grid="1" gridSize="10" guides="1" tooltips="1" connect="1" arrows="1" fold="1" page="1" pageScale="1" pageWidth="850" pageHeight="1100" math="0" shadow="0" extFonts="Permanent Marker^https://fonts.googleapis.com/css?family=Permanent+Marker">
      <root>
        <mxCell id="0" />
        <mxCell id="1" parent="0" />
        <mxCell id="cjXUIRvavYD3EJp5dhYw-1" value="Order" style="rounded=1;arcSize=10;whiteSpace=wrap;html=1;align=center;" vertex="1" parent="1">
          <mxGeometry x="50" y="270" width="100" height="40" as="geometry" />
        </mxCell>
        <mxCell id="cjXUIRvavYD3EJp5dhYw-2" value="User&lt;br&gt;" style="rounded=1;arcSize=10;whiteSpace=wrap;html=1;align=center;" vertex="1" parent="1">
          <mxGeometry x="60" y="90" width="100" height="40" as="geometry" />
        </mxCell>
        <mxCell id="cjXUIRvavYD3EJp5dhYw-20" style="edgeStyle=orthogonalEdgeStyle;rounded=0;orthogonalLoop=1;jettySize=auto;html=1;exitX=0.5;exitY=0;exitDx=0;exitDy=0;entryX=0.5;entryY=1;entryDx=0;entryDy=0;" edge="1" parent="1" source="cjXUIRvavYD3EJp5dhYw-3" target="cjXUIRvavYD3EJp5dhYw-16">
          <mxGeometry relative="1" as="geometry" />
        </mxCell>
        <mxCell id="cjXUIRvavYD3EJp5dhYw-26" style="edgeStyle=orthogonalEdgeStyle;rounded=0;orthogonalLoop=1;jettySize=auto;html=1;exitX=1;exitY=0.5;exitDx=0;exitDy=0;" edge="1" parent="1" source="cjXUIRvavYD3EJp5dhYw-3" target="cjXUIRvavYD3EJp5dhYw-23">
          <mxGeometry relative="1" as="geometry" />
        </mxCell>
        <mxCell id="cjXUIRvavYD3EJp5dhYw-3" value="Product" style="rounded=1;arcSize=10;whiteSpace=wrap;html=1;align=center;" vertex="1" parent="1">
          <mxGeometry x="260" y="320" width="100" height="40" as="geometry" />
        </mxCell>
        <mxCell id="cjXUIRvavYD3EJp5dhYw-4" value="Category" style="rounded=1;arcSize=10;whiteSpace=wrap;html=1;align=center;" vertex="1" parent="1">
          <mxGeometry x="660" y="90" width="100" height="40" as="geometry" />
        </mxCell>
        <mxCell id="cjXUIRvavYD3EJp5dhYw-5" value="CartItem" style="rounded=1;arcSize=10;whiteSpace=wrap;html=1;align=center;" vertex="1" parent="1">
          <mxGeometry x="600" y="520" width="100" height="40" as="geometry" />
        </mxCell>
        <mxCell id="cjXUIRvavYD3EJp5dhYw-6" value="ProductVariant" style="rounded=1;arcSize=10;whiteSpace=wrap;html=1;align=center;" vertex="1" parent="1">
          <mxGeometry x="325" y="430" width="100" height="40" as="geometry" />
        </mxCell>
        <mxCell id="cjXUIRvavYD3EJp5dhYw-7" value="Cart" style="rounded=1;arcSize=10;whiteSpace=wrap;html=1;align=center;" vertex="1" parent="1">
          <mxGeometry x="610" y="400" width="100" height="40" as="geometry" />
        </mxCell>
        <mxCell id="cjXUIRvavYD3EJp5dhYw-8" value="Brand" style="rounded=1;arcSize=10;whiteSpace=wrap;html=1;align=center;" vertex="1" parent="1">
          <mxGeometry x="590" y="320" width="100" height="40" as="geometry" />
        </mxCell>
        <mxCell id="cjXUIRvavYD3EJp5dhYw-21" style="edgeStyle=orthogonalEdgeStyle;rounded=0;orthogonalLoop=1;jettySize=auto;html=1;exitX=1;exitY=0.5;exitDx=0;exitDy=0;entryX=0;entryY=0.5;entryDx=0;entryDy=0;" edge="1" parent="1" source="cjXUIRvavYD3EJp5dhYw-9" target="cjXUIRvavYD3EJp5dhYw-10">
          <mxGeometry relative="1" as="geometry" />
        </mxCell>
        <mxCell id="cjXUIRvavYD3EJp5dhYw-9" value="Subcategory" style="rounded=1;arcSize=10;whiteSpace=wrap;html=1;align=center;" vertex="1" parent="1">
          <mxGeometry x="260" y="90" width="100" height="40" as="geometry" />
        </mxCell>
        <mxCell id="cjXUIRvavYD3EJp5dhYw-11" style="edgeStyle=orthogonalEdgeStyle;rounded=0;orthogonalLoop=1;jettySize=auto;html=1;exitX=1;exitY=0.5;exitDx=0;exitDy=0;" edge="1" parent="1" source="cjXUIRvavYD3EJp5dhYw-10" target="cjXUIRvavYD3EJp5dhYw-4">
          <mxGeometry relative="1" as="geometry" />
        </mxCell>
        <mxCell id="cjXUIRvavYD3EJp5dhYw-10" value="Relationship" style="shape=rhombus;perimeter=rhombusPerimeter;whiteSpace=wrap;html=1;align=center;" vertex="1" parent="1">
          <mxGeometry x="450" y="80" width="120" height="60" as="geometry" />
        </mxCell>
        <mxCell id="cjXUIRvavYD3EJp5dhYw-15" value="" style="edgeStyle=orthogonalEdgeStyle;rounded=0;orthogonalLoop=1;jettySize=auto;html=1;" edge="1" parent="1" target="cjXUIRvavYD3EJp5dhYw-9">
          <mxGeometry relative="1" as="geometry">
            <mxPoint x="310" y="180" as="sourcePoint" />
          </mxGeometry>
        </mxCell>
        <mxCell id="cjXUIRvavYD3EJp5dhYw-16" value="Relationship" style="shape=rhombus;perimeter=rhombusPerimeter;whiteSpace=wrap;html=1;align=center;" vertex="1" parent="1">
          <mxGeometry x="250" y="180" width="120" height="80" as="geometry" />
        </mxCell>
        <mxCell id="cjXUIRvavYD3EJp5dhYw-25" style="edgeStyle=orthogonalEdgeStyle;rounded=0;orthogonalLoop=1;jettySize=auto;html=1;exitX=1;exitY=0.5;exitDx=0;exitDy=0;entryX=0;entryY=0.5;entryDx=0;entryDy=0;" edge="1" parent="1" source="cjXUIRvavYD3EJp5dhYw-23" target="cjXUIRvavYD3EJp5dhYw-8">
          <mxGeometry relative="1" as="geometry" />
        </mxCell>
        <mxCell id="cjXUIRvavYD3EJp5dhYw-23" value="Relationship" style="shape=rhombus;perimeter=rhombusPerimeter;whiteSpace=wrap;html=1;align=center;rotation=0;" vertex="1" parent="1">
          <mxGeometry x="440" y="310" width="80" height="60" as="geometry" />
        </mxCell>
        <mxCell id="cjXUIRvavYD3EJp5dhYw-27" value="Customer" style="rounded=1;arcSize=10;whiteSpace=wrap;html=1;align=center;" vertex="1" parent="1">
          <mxGeometry x="60" y="180" width="100" height="40" as="geometry" />
        </mxCell>
        <mxCell id="cjXUIRvavYD3EJp5dhYw-28" value="OrderItem" style="rounded=1;arcSize=10;whiteSpace=wrap;html=1;align=center;" vertex="1" parent="1">
          <mxGeometry x="10" y="360" width="100" height="40" as="geometry" />
        </mxCell>
        <mxCell id="cjXUIRvavYD3EJp5dhYw-29" value="Purchase" style="rounded=1;arcSize=10;whiteSpace=wrap;html=1;align=center;" vertex="1" parent="1">
          <mxGeometry x="130" y="330" width="100" height="40" as="geometry" />
        </mxCell>
        <mxCell id="cjXUIRvavYD3EJp5dhYw-30" value="PaymentDetails" style="rounded=1;arcSize=10;whiteSpace=wrap;html=1;align=center;" vertex="1" parent="1">
          <mxGeometry x="20" y="450" width="100" height="40" as="geometry" />
        </mxCell>
        <mxCell id="cjXUIRvavYD3EJp5dhYw-31" value="Customer" style="rounded=1;arcSize=10;whiteSpace=wrap;html=1;align=center;" vertex="1" parent="1">
          <mxGeometry x="160" y="450" width="100" height="40" as="geometry" />
        </mxCell>
        <mxCell id="cjXUIRvavYD3EJp5dhYw-32" value="Address" style="rounded=1;arcSize=10;whiteSpace=wrap;html=1;align=center;" vertex="1" parent="1">
          <mxGeometry x="20" y="550" width="100" height="40" as="geometry" />
        </mxCell>
        <mxCell id="cjXUIRvavYD3EJp5dhYw-33" value="" style="rounded=1;arcSize=10;whiteSpace=wrap;html=1;align=center;" vertex="1" parent="1">
          <mxGeometry x="150" y="550" width="100" height="40" as="geometry" />
        </mxCell>
        <mxCell id="cjXUIRvavYD3EJp5dhYw-34" value="Entity" style="rounded=1;arcSize=10;whiteSpace=wrap;html=1;align=center;" vertex="1" parent="1">
          <mxGeometry x="370" y="320" width="100" height="40" as="geometry" />
        </mxCell>
        <mxCell id="cjXUIRvavYD3EJp5dhYw-35" value="Attribute" style="ellipse;whiteSpace=wrap;html=1;align=center;" vertex="1" parent="1">
          <mxGeometry x="-540" y="500" width="140" height="40" as="geometry" />
        </mxCell>
        <mxCell id="cjXUIRvavYD3EJp5dhYw-36" value="Entity" style="rounded=1;arcSize=10;whiteSpace=wrap;html=1;align=center;" vertex="1" parent="1">
          <mxGeometry x="325" y="570" width="100" height="40" as="geometry" />
        </mxCell>
        <mxCell id="cjXUIRvavYD3EJp5dhYw-37" value="Supplier" style="rounded=1;arcSize=10;whiteSpace=wrap;html=1;align=center;" vertex="1" parent="1">
          <mxGeometry x="390" y="500" width="100" height="40" as="geometry" />
        </mxCell>
      </root>
    </mxGraphModel>
  </diagram>
</mxfile>
